<?xml version="1.0" encoding="utf-8"?>
<!-- Generator: Adobe Illustrator 18.0.0, SVG Export Plug-In . SVG Version: 6.00 Build 0)  -->
<!DOCTYPE svg PUBLIC "-//W3C//DTD SVG 1.1//EN" "http://www.w3.org/Graphics/SVG/1.1/DTD/svg11.dtd">
<svg version="1.1" id="Ebene_1" xmlns="http://www.w3.org/2000/svg" xmlns:xlink="http://www.w3.org/1999/xlink" x="0px" y="0px"
	 viewBox="0 0 88.6 31.9" enable-background="new 0 0 88.6 31.9" xml:space="preserve">
<g>
	<polygon fill="#53534C" points="75.8,0 75.8,4.1 88.6,4.1 88.6,0 75.8,0 	"/>
	<polygon fill="#53534C" points="21,22.9 25.7,22.9 25.7,8.1 21,8.1 21,22.9 	"/>
	<path fill-rule="evenodd" clip-rule="evenodd" fill="#53534C" d="M30.9,17.5c0,4.3,2.4,5.7,6.5,5.7h7.4c4.1,0,6.5-1.4,6.5-5.7v-4
		c0-4.3-2.4-5.7-6.5-5.7h-7.4c-4.1,0-6.5,1.4-6.5,5.7V17.5L30.9,17.5z M35.6,14.3c0-1.8,0.5-2.8,2.8-2.8h5.4c2.4,0,2.8,0.9,2.8,2.8
		v2.4c0,2.1-0.4,2.8-2.6,2.8h-5.9c-2.1,0-2.6-0.6-2.6-2.8V14.3L35.6,14.3z"/>
	<polygon fill="#53534C" points="71.3,18.2 71.3,8.1 75.8,8.1 75.8,22.9 69.2,22.9 61.2,12.7 61.2,22.9 56.6,22.9 56.6,8.1 
		63.2,8.1 71.3,18.2 	"/>
	<path fill="#C70063" d="M58.4,30.2c0,1.1,0.5,1.6,1.8,1.6H62c1.2,0,1.8-0.6,1.8-1.6v-2.7h-1.3V30c0,0.5-0.2,0.7-0.7,0.7h-1.3
		c-0.5,0-0.7-0.2-0.7-0.7v-2.5h-1.4V30.2L58.4,30.2z"/>
	<path fill-rule="evenodd" clip-rule="evenodd" fill="#C70063" d="M70.8,31.8h1.3v-1.1h2.6c0.9,0,1.2-0.8,1.2-1.4V29
		c0-0.8-0.3-1.5-1.5-1.5h-3.6V31.8L70.8,31.8z M72.1,28.5h1.9c0.4,0,0.5,0.1,0.5,0.4v0.4c0,0.3-0.1,0.4-0.4,0.4h-2V28.5L72.1,28.5z"
		/>
	<path fill-rule="evenodd" clip-rule="evenodd" fill="#C70063" d="M45.5,30.2c0,1.3,0.7,1.6,1.9,1.6h2.1c1.2,0,1.9-0.4,1.9-1.6v-1.2
		c0-1.3-0.7-1.6-1.9-1.6h-2.1c-1.2,0-1.9,0.4-1.9,1.6V30.2L45.5,30.2z M46.9,29.3c0-0.5,0.1-0.8,0.8-0.8h1.6c0.7,0,0.8,0.3,0.8,0.8
		V30c0,0.6-0.1,0.8-0.8,0.8h-1.7c-0.6,0-0.8-0.2-0.8-0.8V29.3L46.9,29.3z"/>
	<path fill="#C70063" d="M34.8,28.5v1H37c0.4,0,0.5-0.1,0.5-0.4v-0.2c0-0.4-0.2-0.4-0.6-0.4H34.8L34.8,28.5z M37.3,31.8l-0.8-1.3
		h-1.7v1.3h-1.3v-4.3h4c1,0,1.3,0.6,1.3,1.4c0,0.6-0.2,1.2-0.9,1.4l1.1,1.4H37.3L37.3,31.8z"/>
	<path fill="#C70063" d="M21,30.2c0,1.3,0.7,1.6,1.9,1.6h1.5c1.5,0,2.1-0.2,2.1-1.4v-1.3h-2.8v0.9h1.5v0.3c0,0.4-0.3,0.4-0.7,0.4
		h-1.3c-0.7,0-0.8-0.1-0.8-0.9v-0.7c0-0.7,0.2-0.9,0.8-0.9h3.1v-1h-3.4c-1.2,0-1.9,0.4-1.9,1.6V30.2L21,30.2z"/>
	<polygon fill="#53534C" points="4.6,13.5 5.5,13.5 11.4,8.1 17.7,8.1 9.8,14.9 18.9,22.9 11.7,22.9 5.5,17.2 4.6,17.2 4.6,22.9 
		0,22.9 0,8.1 4.6,8.1 4.6,13.5 	"/>
</g>
</svg>
